<mxfile host="app.diagrams.net" agent="Mozilla/5.0 (Windows NT 10.0; Win64; x64) AppleWebKit/537.36 (KHTML, like Gecko) Chrome/133.0.0.0 Safari/537.36" version="26.0.11">
  <diagram name="PÃ¡gina-1" id="ithMAt6TO87KFOcI6PQm">
    <mxGraphModel dx="1162" dy="650" grid="1" gridSize="10" guides="1" tooltips="1" connect="1" arrows="1" fold="1" page="1" pageScale="1" pageWidth="1169" pageHeight="827" math="0" shadow="0">
      <root>
        <mxCell id="0" />
        <mxCell id="1" parent="0" />
        <mxCell id="aW5KBKIzOO0NqsmFz-F7-1" value="CLIENT" style="rounded=0;whiteSpace=wrap;html=1;" vertex="1" parent="1">
          <mxGeometry x="270" y="410" width="120" height="60" as="geometry" />
        </mxCell>
        <mxCell id="aW5KBKIzOO0NqsmFz-F7-2" value="INSURANCE" style="rounded=0;whiteSpace=wrap;html=1;" vertex="1" parent="1">
          <mxGeometry x="690" y="410" width="120" height="60" as="geometry" />
        </mxCell>
        <mxCell id="aW5KBKIzOO0NqsmFz-F7-9" value="BUYS" style="shape=rhombus;perimeter=rhombusPerimeter;whiteSpace=wrap;html=1;align=center;" vertex="1" parent="1">
          <mxGeometry x="480" y="410" width="120" height="60" as="geometry" />
        </mxCell>
        <mxCell id="aW5KBKIzOO0NqsmFz-F7-10" value="" style="endArrow=none;html=1;rounded=0;entryX=0;entryY=0.5;entryDx=0;entryDy=0;" edge="1" parent="1" target="aW5KBKIzOO0NqsmFz-F7-9">
          <mxGeometry width="50" height="50" relative="1" as="geometry">
            <mxPoint x="390" y="440" as="sourcePoint" />
            <mxPoint x="440" y="390" as="targetPoint" />
          </mxGeometry>
        </mxCell>
        <mxCell id="aW5KBKIzOO0NqsmFz-F7-11" value="(1, n)" style="edgeLabel;html=1;align=center;verticalAlign=middle;resizable=0;points=[];" vertex="1" connectable="0" parent="aW5KBKIzOO0NqsmFz-F7-10">
          <mxGeometry x="-0.2678" y="-1" relative="1" as="geometry">
            <mxPoint x="8" y="-1" as="offset" />
          </mxGeometry>
        </mxCell>
        <mxCell id="aW5KBKIzOO0NqsmFz-F7-12" value="" style="endArrow=none;html=1;rounded=0;entryX=0;entryY=0.5;entryDx=0;entryDy=0;" edge="1" parent="1">
          <mxGeometry width="50" height="50" relative="1" as="geometry">
            <mxPoint x="600" y="440" as="sourcePoint" />
            <mxPoint x="690" y="440" as="targetPoint" />
          </mxGeometry>
        </mxCell>
        <mxCell id="aW5KBKIzOO0NqsmFz-F7-13" value="(0, n)" style="edgeLabel;html=1;align=center;verticalAlign=middle;resizable=0;points=[];" vertex="1" connectable="0" parent="aW5KBKIzOO0NqsmFz-F7-12">
          <mxGeometry x="-0.2678" y="-1" relative="1" as="geometry">
            <mxPoint x="8" y="-1" as="offset" />
          </mxGeometry>
        </mxCell>
        <mxCell id="aW5KBKIzOO0NqsmFz-F7-14" value="" style="ellipse;whiteSpace=wrap;html=1;aspect=fixed;fillColor=#0050ef;fontColor=#ffffff;strokeColor=#001DBC;" vertex="1" parent="1">
          <mxGeometry x="250" y="427.5" width="10" height="10" as="geometry" />
        </mxCell>
        <mxCell id="aW5KBKIzOO0NqsmFz-F7-15" value="" style="ellipse;whiteSpace=wrap;html=1;aspect=fixed;" vertex="1" parent="1">
          <mxGeometry x="250" y="447.5" width="10" height="10" as="geometry" />
        </mxCell>
        <mxCell id="aW5KBKIzOO0NqsmFz-F7-16" value="doi" style="text;html=1;align=center;verticalAlign=middle;resizable=0;points=[];autosize=1;strokeColor=none;fillColor=none;" vertex="1" parent="1">
          <mxGeometry x="210" y="417.5" width="40" height="30" as="geometry" />
        </mxCell>
        <mxCell id="aW5KBKIzOO0NqsmFz-F7-17" value="name" style="text;html=1;align=center;verticalAlign=middle;resizable=0;points=[];autosize=1;strokeColor=none;fillColor=none;" vertex="1" parent="1">
          <mxGeometry x="205" y="437.5" width="50" height="30" as="geometry" />
        </mxCell>
        <mxCell id="aW5KBKIzOO0NqsmFz-F7-18" value="" style="ellipse;whiteSpace=wrap;html=1;aspect=fixed;fillColor=#0050ef;fontColor=#ffffff;strokeColor=#001DBC;" vertex="1" parent="1">
          <mxGeometry x="820" y="423" width="10" height="10" as="geometry" />
        </mxCell>
        <mxCell id="aW5KBKIzOO0NqsmFz-F7-19" value="" style="ellipse;whiteSpace=wrap;html=1;aspect=fixed;" vertex="1" parent="1">
          <mxGeometry x="820" y="442" width="10" height="10" as="geometry" />
        </mxCell>
        <mxCell id="aW5KBKIzOO0NqsmFz-F7-20" value="id" style="text;html=1;align=center;verticalAlign=middle;resizable=0;points=[];autosize=1;strokeColor=none;fillColor=none;" vertex="1" parent="1">
          <mxGeometry x="830" y="414" width="30" height="30" as="geometry" />
        </mxCell>
        <mxCell id="aW5KBKIzOO0NqsmFz-F7-21" value="percentage_covered" style="text;html=1;align=center;verticalAlign=middle;resizable=0;points=[];autosize=1;strokeColor=none;fillColor=none;" vertex="1" parent="1">
          <mxGeometry x="830" y="432" width="130" height="30" as="geometry" />
        </mxCell>
        <mxCell id="aW5KBKIzOO0NqsmFz-F7-22" value="" style="ellipse;whiteSpace=wrap;html=1;aspect=fixed;" vertex="1" parent="1">
          <mxGeometry x="820" y="462" width="10" height="10" as="geometry" />
        </mxCell>
        <mxCell id="aW5KBKIzOO0NqsmFz-F7-23" value="start_date" style="text;html=1;align=center;verticalAlign=middle;resizable=0;points=[];autosize=1;strokeColor=none;fillColor=none;" vertex="1" parent="1">
          <mxGeometry x="825" y="452" width="80" height="30" as="geometry" />
        </mxCell>
        <mxCell id="aW5KBKIzOO0NqsmFz-F7-24" value="" style="ellipse;whiteSpace=wrap;html=1;aspect=fixed;" vertex="1" parent="1">
          <mxGeometry x="820" y="482" width="10" height="10" as="geometry" />
        </mxCell>
        <mxCell id="aW5KBKIzOO0NqsmFz-F7-25" value="end_date" style="text;html=1;align=center;verticalAlign=middle;resizable=0;points=[];autosize=1;strokeColor=none;fillColor=none;" vertex="1" parent="1">
          <mxGeometry x="830" y="472" width="70" height="30" as="geometry" />
        </mxCell>
        <mxCell id="aW5KBKIzOO0NqsmFz-F7-26" value="" style="ellipse;whiteSpace=wrap;html=1;aspect=fixed;" vertex="1" parent="1">
          <mxGeometry x="820" y="502" width="10" height="10" as="geometry" />
        </mxCell>
        <mxCell id="aW5KBKIzOO0NqsmFz-F7-27" value="annual_cost" style="text;html=1;align=center;verticalAlign=middle;resizable=0;points=[];autosize=1;strokeColor=none;fillColor=none;" vertex="1" parent="1">
          <mxGeometry x="825" y="492" width="90" height="30" as="geometry" />
        </mxCell>
        <mxCell id="aW5KBKIzOO0NqsmFz-F7-29" value="PROPERTY" style="rounded=0;whiteSpace=wrap;html=1;" vertex="1" parent="1">
          <mxGeometry x="590" y="570" width="120" height="60" as="geometry" />
        </mxCell>
        <mxCell id="aW5KBKIzOO0NqsmFz-F7-30" value="VEHICULE" style="rounded=0;whiteSpace=wrap;html=1;" vertex="1" parent="1">
          <mxGeometry x="800" y="570" width="120" height="60" as="geometry" />
        </mxCell>
        <mxCell id="aW5KBKIzOO0NqsmFz-F7-31" value="" style="endArrow=none;html=1;rounded=0;exitX=0.5;exitY=0;exitDx=0;exitDy=0;entryX=0.5;entryY=0;entryDx=0;entryDy=0;" edge="1" parent="1" source="aW5KBKIzOO0NqsmFz-F7-29" target="aW5KBKIzOO0NqsmFz-F7-30">
          <mxGeometry width="50" height="50" relative="1" as="geometry">
            <mxPoint x="500" y="450" as="sourcePoint" />
            <mxPoint x="550" y="400" as="targetPoint" />
            <Array as="points">
              <mxPoint x="650" y="530" />
              <mxPoint x="750" y="530" />
              <mxPoint x="860" y="530" />
            </Array>
          </mxGeometry>
        </mxCell>
        <mxCell id="aW5KBKIzOO0NqsmFz-F7-32" value="" style="endArrow=classic;html=1;rounded=0;" edge="1" parent="1">
          <mxGeometry width="50" height="50" relative="1" as="geometry">
            <mxPoint x="750" y="530" as="sourcePoint" />
            <mxPoint x="750" y="470" as="targetPoint" />
          </mxGeometry>
        </mxCell>
        <mxCell id="aW5KBKIzOO0NqsmFz-F7-41" value="Text" style="edgeLabel;html=1;align=center;verticalAlign=middle;resizable=0;points=[];" vertex="1" connectable="0" parent="aW5KBKIzOO0NqsmFz-F7-32">
          <mxGeometry x="-0.1238" relative="1" as="geometry">
            <mxPoint as="offset" />
          </mxGeometry>
        </mxCell>
        <mxCell id="aW5KBKIzOO0NqsmFz-F7-33" value="" style="ellipse;whiteSpace=wrap;html=1;aspect=fixed;fillColor=#0050ef;fontColor=#ffffff;strokeColor=#001DBC;" vertex="1" parent="1">
          <mxGeometry x="810" y="639" width="10" height="10" as="geometry" />
        </mxCell>
        <mxCell id="aW5KBKIzOO0NqsmFz-F7-34" value="" style="ellipse;whiteSpace=wrap;html=1;aspect=fixed;" vertex="1" parent="1">
          <mxGeometry x="810" y="658" width="10" height="10" as="geometry" />
        </mxCell>
        <mxCell id="aW5KBKIzOO0NqsmFz-F7-35" value="plate_number" style="text;html=1;align=center;verticalAlign=middle;resizable=0;points=[];autosize=1;strokeColor=none;fillColor=none;" vertex="1" parent="1">
          <mxGeometry x="815" y="630" width="100" height="30" as="geometry" />
        </mxCell>
        <mxCell id="aW5KBKIzOO0NqsmFz-F7-36" value="price" style="text;html=1;align=center;verticalAlign=middle;resizable=0;points=[];autosize=1;strokeColor=none;fillColor=none;" vertex="1" parent="1">
          <mxGeometry x="815" y="649" width="50" height="30" as="geometry" />
        </mxCell>
        <mxCell id="aW5KBKIzOO0NqsmFz-F7-37" value="" style="ellipse;whiteSpace=wrap;html=1;aspect=fixed;fillColor=#0050ef;fontColor=#ffffff;strokeColor=#001DBC;" vertex="1" parent="1">
          <mxGeometry x="600" y="639" width="10" height="10" as="geometry" />
        </mxCell>
        <mxCell id="aW5KBKIzOO0NqsmFz-F7-38" value="" style="ellipse;whiteSpace=wrap;html=1;aspect=fixed;" vertex="1" parent="1">
          <mxGeometry x="600" y="658" width="10" height="10" as="geometry" />
        </mxCell>
        <mxCell id="aW5KBKIzOO0NqsmFz-F7-39" value="area" style="text;html=1;align=center;verticalAlign=middle;resizable=0;points=[];autosize=1;strokeColor=none;fillColor=none;" vertex="1" parent="1">
          <mxGeometry x="605" y="630" width="50" height="30" as="geometry" />
        </mxCell>
        <mxCell id="aW5KBKIzOO0NqsmFz-F7-40" value="address" style="text;html=1;align=center;verticalAlign=middle;resizable=0;points=[];autosize=1;strokeColor=none;fillColor=none;" vertex="1" parent="1">
          <mxGeometry x="600" y="648" width="70" height="30" as="geometry" />
        </mxCell>
      </root>
    </mxGraphModel>
  </diagram>
</mxfile>
